<mxfile host="app.diagrams.net" agent="Mozilla/5.0 (Windows NT 10.0; Win64; x64) AppleWebKit/537.36 (KHTML, like Gecko) Chrome/136.0.0.0 Safari/537.36" version="27.0.9">
  <diagram name="第 1 页" id="QF-57AJRYaY1Wi2G46tM">
    <mxGraphModel dx="946" dy="597" grid="1" gridSize="10" guides="1" tooltips="1" connect="1" arrows="1" fold="1" page="1" pageScale="1" pageWidth="827" pageHeight="1169" math="0" shadow="0">
      <root>
        <mxCell id="0" />
        <mxCell id="1" parent="0" />
        <mxCell id="AaTU3RrL48MkJrULVNO8-1" value="table[] list" style="rounded=0;whiteSpace=wrap;html=1;" vertex="1" parent="1">
          <mxGeometry x="640" y="330" width="120" height="60" as="geometry" />
        </mxCell>
        <mxCell id="AaTU3RrL48MkJrULVNO8-2" style="edgeStyle=orthogonalEdgeStyle;rounded=0;orthogonalLoop=1;jettySize=auto;html=1;entryX=0.5;entryY=0;entryDx=0;entryDy=0;" edge="1" parent="1" target="AaTU3RrL48MkJrULVNO8-4">
          <mxGeometry relative="1" as="geometry">
            <mxPoint x="700" y="390" as="sourcePoint" />
          </mxGeometry>
        </mxCell>
        <mxCell id="AaTU3RrL48MkJrULVNO8-3" style="edgeStyle=orthogonalEdgeStyle;rounded=0;orthogonalLoop=1;jettySize=auto;html=1;" edge="1" parent="1" source="AaTU3RrL48MkJrULVNO8-4" target="AaTU3RrL48MkJrULVNO8-6">
          <mxGeometry relative="1" as="geometry">
            <mxPoint x="700" y="500" as="targetPoint" />
            <Array as="points">
              <mxPoint x="700" y="470" />
              <mxPoint x="701" y="470" />
            </Array>
          </mxGeometry>
        </mxCell>
        <mxCell id="AaTU3RrL48MkJrULVNO8-4" value="index (table_id)" style="rounded=0;whiteSpace=wrap;html=1;" vertex="1" parent="1">
          <mxGeometry x="640" y="420" width="120" height="30" as="geometry" />
        </mxCell>
        <mxCell id="AaTU3RrL48MkJrULVNO8-5" style="edgeStyle=orthogonalEdgeStyle;rounded=0;orthogonalLoop=1;jettySize=auto;html=1;entryX=0;entryY=0.5;entryDx=0;entryDy=0;" edge="1" parent="1" source="AaTU3RrL48MkJrULVNO8-6" target="AaTU3RrL48MkJrULVNO8-7">
          <mxGeometry relative="1" as="geometry" />
        </mxCell>
        <mxCell id="AaTU3RrL48MkJrULVNO8-44" style="edgeStyle=orthogonalEdgeStyle;rounded=0;orthogonalLoop=1;jettySize=auto;html=1;" edge="1" parent="1" source="AaTU3RrL48MkJrULVNO8-6" target="AaTU3RrL48MkJrULVNO8-42">
          <mxGeometry relative="1" as="geometry" />
        </mxCell>
        <mxCell id="AaTU3RrL48MkJrULVNO8-6" value="table[0]" style="rounded=0;whiteSpace=wrap;html=1;" vertex="1" parent="1">
          <mxGeometry x="640" y="480" width="120" height="30" as="geometry" />
        </mxCell>
        <mxCell id="AaTU3RrL48MkJrULVNO8-12" style="edgeStyle=orthogonalEdgeStyle;rounded=0;orthogonalLoop=1;jettySize=auto;html=1;entryX=0;entryY=0.5;entryDx=0;entryDy=0;" edge="1" parent="1" source="AaTU3RrL48MkJrULVNO8-7" target="AaTU3RrL48MkJrULVNO8-8">
          <mxGeometry relative="1" as="geometry" />
        </mxCell>
        <mxCell id="AaTU3RrL48MkJrULVNO8-13" style="edgeStyle=orthogonalEdgeStyle;rounded=0;orthogonalLoop=1;jettySize=auto;html=1;entryX=0;entryY=0.5;entryDx=0;entryDy=0;" edge="1" parent="1" source="AaTU3RrL48MkJrULVNO8-7" target="AaTU3RrL48MkJrULVNO8-9">
          <mxGeometry relative="1" as="geometry" />
        </mxCell>
        <mxCell id="AaTU3RrL48MkJrULVNO8-14" style="edgeStyle=orthogonalEdgeStyle;rounded=0;orthogonalLoop=1;jettySize=auto;html=1;entryX=0;entryY=0.5;entryDx=0;entryDy=0;" edge="1" parent="1" source="AaTU3RrL48MkJrULVNO8-7" target="AaTU3RrL48MkJrULVNO8-10">
          <mxGeometry relative="1" as="geometry" />
        </mxCell>
        <mxCell id="AaTU3RrL48MkJrULVNO8-7" value="table_id: 0&lt;div&gt;type: &quot;small&quot;&lt;/div&gt;&lt;div&gt;min: 4&lt;/div&gt;&lt;div&gt;max: 6&lt;/div&gt;&lt;div&gt;seats_occupied: 4&lt;/div&gt;&lt;div&gt;&lt;span style=&quot;background-color: transparent; color: light-dark(rgb(0, 0, 0), rgb(255, 255, 255));&quot;&gt;guests_seated: {dict}&amp;nbsp;&lt;/span&gt;&lt;/div&gt;" style="rounded=0;whiteSpace=wrap;html=1;align=left;" vertex="1" parent="1">
          <mxGeometry x="800" y="443.75" width="130" height="102.5" as="geometry" />
        </mxCell>
        <mxCell id="AaTU3RrL48MkJrULVNO8-19" style="edgeStyle=orthogonalEdgeStyle;rounded=0;orthogonalLoop=1;jettySize=auto;html=1;entryX=0;entryY=0.5;entryDx=0;entryDy=0;" edge="1" parent="1" source="AaTU3RrL48MkJrULVNO8-8" target="AaTU3RrL48MkJrULVNO8-15">
          <mxGeometry relative="1" as="geometry" />
        </mxCell>
        <mxCell id="AaTU3RrL48MkJrULVNO8-20" style="edgeStyle=orthogonalEdgeStyle;rounded=0;orthogonalLoop=1;jettySize=auto;html=1;entryX=0;entryY=0.5;entryDx=0;entryDy=0;" edge="1" parent="1" source="AaTU3RrL48MkJrULVNO8-8" target="AaTU3RrL48MkJrULVNO8-16">
          <mxGeometry relative="1" as="geometry" />
        </mxCell>
        <mxCell id="AaTU3RrL48MkJrULVNO8-8" value="main_guests[]" style="rounded=0;whiteSpace=wrap;html=1;" vertex="1" parent="1">
          <mxGeometry x="900" y="580" width="100" height="30" as="geometry" />
        </mxCell>
        <mxCell id="AaTU3RrL48MkJrULVNO8-21" style="edgeStyle=orthogonalEdgeStyle;rounded=0;orthogonalLoop=1;jettySize=auto;html=1;entryX=0;entryY=0.5;entryDx=0;entryDy=0;" edge="1" parent="1" source="AaTU3RrL48MkJrULVNO8-9" target="AaTU3RrL48MkJrULVNO8-17">
          <mxGeometry relative="1" as="geometry" />
        </mxCell>
        <mxCell id="AaTU3RrL48MkJrULVNO8-22" style="edgeStyle=orthogonalEdgeStyle;rounded=0;orthogonalLoop=1;jettySize=auto;html=1;entryX=0;entryY=0.5;entryDx=0;entryDy=0;" edge="1" parent="1" source="AaTU3RrL48MkJrULVNO8-9" target="AaTU3RrL48MkJrULVNO8-18">
          <mxGeometry relative="1" as="geometry" />
        </mxCell>
        <mxCell id="AaTU3RrL48MkJrULVNO8-9" value="graduation_year[]" style="rounded=0;whiteSpace=wrap;html=1;" vertex="1" parent="1">
          <mxGeometry x="900" y="740" width="100" height="30" as="geometry" />
        </mxCell>
        <mxCell id="AaTU3RrL48MkJrULVNO8-24" style="edgeStyle=orthogonalEdgeStyle;rounded=0;orthogonalLoop=1;jettySize=auto;html=1;entryX=0;entryY=0.5;entryDx=0;entryDy=0;" edge="1" parent="1" source="AaTU3RrL48MkJrULVNO8-10" target="AaTU3RrL48MkJrULVNO8-23">
          <mxGeometry relative="1" as="geometry" />
        </mxCell>
        <mxCell id="AaTU3RrL48MkJrULVNO8-10" value="other_guests[]" style="rounded=0;whiteSpace=wrap;html=1;" vertex="1" parent="1">
          <mxGeometry x="900" y="900" width="100" height="30" as="geometry" />
        </mxCell>
        <mxCell id="AaTU3RrL48MkJrULVNO8-15" value="&quot;12345678&quot;" style="rounded=0;whiteSpace=wrap;html=1;" vertex="1" parent="1">
          <mxGeometry x="980" y="630" width="150" height="30" as="geometry" />
        </mxCell>
        <mxCell id="AaTU3RrL48MkJrULVNO8-16" value="&quot;11111111&quot;" style="rounded=0;whiteSpace=wrap;html=1;" vertex="1" parent="1">
          <mxGeometry x="980" y="680" width="150" height="30" as="geometry" />
        </mxCell>
        <mxCell id="AaTU3RrL48MkJrULVNO8-17" value="2022" style="rounded=0;whiteSpace=wrap;html=1;" vertex="1" parent="1">
          <mxGeometry x="980" y="800" width="150" height="30" as="geometry" />
        </mxCell>
        <mxCell id="AaTU3RrL48MkJrULVNO8-18" value="2022" style="rounded=0;whiteSpace=wrap;html=1;" vertex="1" parent="1">
          <mxGeometry x="980" y="850" width="150" height="30" as="geometry" />
        </mxCell>
        <mxCell id="AaTU3RrL48MkJrULVNO8-23" value="&quot;Bob&quot;" style="rounded=0;whiteSpace=wrap;html=1;" vertex="1" parent="1">
          <mxGeometry x="980" y="960" width="150" height="30" as="geometry" />
        </mxCell>
        <mxCell id="AaTU3RrL48MkJrULVNO8-25" style="edgeStyle=orthogonalEdgeStyle;rounded=0;orthogonalLoop=1;jettySize=auto;html=1;entryX=0;entryY=0.5;entryDx=0;entryDy=0;" edge="1" parent="1" source="AaTU3RrL48MkJrULVNO8-28" target="AaTU3RrL48MkJrULVNO8-31">
          <mxGeometry relative="1" as="geometry" />
        </mxCell>
        <mxCell id="AaTU3RrL48MkJrULVNO8-26" style="edgeStyle=orthogonalEdgeStyle;rounded=0;orthogonalLoop=1;jettySize=auto;html=1;entryX=0;entryY=0.5;entryDx=0;entryDy=0;" edge="1" parent="1" source="AaTU3RrL48MkJrULVNO8-28" target="AaTU3RrL48MkJrULVNO8-34">
          <mxGeometry relative="1" as="geometry" />
        </mxCell>
        <mxCell id="AaTU3RrL48MkJrULVNO8-27" style="edgeStyle=orthogonalEdgeStyle;rounded=0;orthogonalLoop=1;jettySize=auto;html=1;entryX=0;entryY=0.5;entryDx=0;entryDy=0;" edge="1" parent="1" source="AaTU3RrL48MkJrULVNO8-28" target="AaTU3RrL48MkJrULVNO8-36">
          <mxGeometry relative="1" as="geometry" />
        </mxCell>
        <mxCell id="AaTU3RrL48MkJrULVNO8-28" value="table_id: 1&lt;div&gt;type: &quot;small&quot;&lt;/div&gt;&lt;div&gt;min: 10&lt;/div&gt;&lt;div&gt;max: 8&lt;/div&gt;&lt;div&gt;seats_occupied: 8&lt;/div&gt;&lt;div&gt;&lt;span style=&quot;background-color: transparent; color: light-dark(rgb(0, 0, 0), rgb(255, 255, 255));&quot;&gt;guests_seated: {dict}&amp;nbsp;&lt;/span&gt;&lt;/div&gt;" style="rounded=0;whiteSpace=wrap;html=1;align=left;" vertex="1" parent="1">
          <mxGeometry x="860" y="1040" width="130" height="102.5" as="geometry" />
        </mxCell>
        <mxCell id="AaTU3RrL48MkJrULVNO8-29" style="edgeStyle=orthogonalEdgeStyle;rounded=0;orthogonalLoop=1;jettySize=auto;html=1;entryX=0;entryY=0.5;entryDx=0;entryDy=0;" edge="1" parent="1" source="AaTU3RrL48MkJrULVNO8-31" target="AaTU3RrL48MkJrULVNO8-37">
          <mxGeometry relative="1" as="geometry" />
        </mxCell>
        <mxCell id="AaTU3RrL48MkJrULVNO8-31" value="main_guests[]" style="rounded=0;whiteSpace=wrap;html=1;" vertex="1" parent="1">
          <mxGeometry x="960" y="1176.25" width="100" height="30" as="geometry" />
        </mxCell>
        <mxCell id="AaTU3RrL48MkJrULVNO8-32" style="edgeStyle=orthogonalEdgeStyle;rounded=0;orthogonalLoop=1;jettySize=auto;html=1;entryX=0;entryY=0.5;entryDx=0;entryDy=0;" edge="1" parent="1" source="AaTU3RrL48MkJrULVNO8-34" target="AaTU3RrL48MkJrULVNO8-39">
          <mxGeometry relative="1" as="geometry" />
        </mxCell>
        <mxCell id="AaTU3RrL48MkJrULVNO8-34" value="graduation_year[]" style="rounded=0;whiteSpace=wrap;html=1;" vertex="1" parent="1">
          <mxGeometry x="960" y="1290" width="100" height="30" as="geometry" />
        </mxCell>
        <mxCell id="AaTU3RrL48MkJrULVNO8-61" style="edgeStyle=orthogonalEdgeStyle;rounded=0;orthogonalLoop=1;jettySize=auto;html=1;entryX=0;entryY=0.5;entryDx=0;entryDy=0;" edge="1" parent="1" source="AaTU3RrL48MkJrULVNO8-36" target="AaTU3RrL48MkJrULVNO8-53">
          <mxGeometry relative="1" as="geometry" />
        </mxCell>
        <mxCell id="AaTU3RrL48MkJrULVNO8-62" style="edgeStyle=orthogonalEdgeStyle;rounded=0;orthogonalLoop=1;jettySize=auto;html=1;entryX=0;entryY=0.5;entryDx=0;entryDy=0;" edge="1" parent="1" source="AaTU3RrL48MkJrULVNO8-36" target="AaTU3RrL48MkJrULVNO8-54">
          <mxGeometry relative="1" as="geometry" />
        </mxCell>
        <mxCell id="AaTU3RrL48MkJrULVNO8-63" style="edgeStyle=orthogonalEdgeStyle;rounded=0;orthogonalLoop=1;jettySize=auto;html=1;entryX=0;entryY=0.5;entryDx=0;entryDy=0;" edge="1" parent="1" source="AaTU3RrL48MkJrULVNO8-36" target="AaTU3RrL48MkJrULVNO8-55">
          <mxGeometry relative="1" as="geometry" />
        </mxCell>
        <mxCell id="AaTU3RrL48MkJrULVNO8-64" style="edgeStyle=orthogonalEdgeStyle;rounded=0;orthogonalLoop=1;jettySize=auto;html=1;entryX=0;entryY=0.5;entryDx=0;entryDy=0;" edge="1" parent="1" source="AaTU3RrL48MkJrULVNO8-36" target="AaTU3RrL48MkJrULVNO8-56">
          <mxGeometry relative="1" as="geometry" />
        </mxCell>
        <mxCell id="AaTU3RrL48MkJrULVNO8-65" style="edgeStyle=orthogonalEdgeStyle;rounded=0;orthogonalLoop=1;jettySize=auto;html=1;entryX=0;entryY=0.5;entryDx=0;entryDy=0;" edge="1" parent="1" source="AaTU3RrL48MkJrULVNO8-36" target="AaTU3RrL48MkJrULVNO8-57">
          <mxGeometry relative="1" as="geometry" />
        </mxCell>
        <mxCell id="AaTU3RrL48MkJrULVNO8-66" style="edgeStyle=orthogonalEdgeStyle;rounded=0;orthogonalLoop=1;jettySize=auto;html=1;entryX=0;entryY=0.5;entryDx=0;entryDy=0;" edge="1" parent="1" source="AaTU3RrL48MkJrULVNO8-36" target="AaTU3RrL48MkJrULVNO8-58">
          <mxGeometry relative="1" as="geometry" />
        </mxCell>
        <mxCell id="AaTU3RrL48MkJrULVNO8-67" style="edgeStyle=orthogonalEdgeStyle;rounded=0;orthogonalLoop=1;jettySize=auto;html=1;entryX=0;entryY=0.5;entryDx=0;entryDy=0;" edge="1" parent="1" source="AaTU3RrL48MkJrULVNO8-36" target="AaTU3RrL48MkJrULVNO8-59">
          <mxGeometry relative="1" as="geometry" />
        </mxCell>
        <mxCell id="AaTU3RrL48MkJrULVNO8-36" value="other_guests[]" style="rounded=0;whiteSpace=wrap;html=1;" vertex="1" parent="1">
          <mxGeometry x="960" y="1410" width="100" height="30" as="geometry" />
        </mxCell>
        <mxCell id="AaTU3RrL48MkJrULVNO8-37" value="&quot;22222222&quot;" style="rounded=0;whiteSpace=wrap;html=1;" vertex="1" parent="1">
          <mxGeometry x="1040" y="1226.25" width="150" height="30" as="geometry" />
        </mxCell>
        <mxCell id="AaTU3RrL48MkJrULVNO8-39" value="1979" style="rounded=0;whiteSpace=wrap;html=1;" vertex="1" parent="1">
          <mxGeometry x="1040" y="1350" width="150" height="30" as="geometry" />
        </mxCell>
        <mxCell id="AaTU3RrL48MkJrULVNO8-43" style="edgeStyle=orthogonalEdgeStyle;rounded=0;orthogonalLoop=1;jettySize=auto;html=1;" edge="1" parent="1" source="AaTU3RrL48MkJrULVNO8-42" target="AaTU3RrL48MkJrULVNO8-28">
          <mxGeometry relative="1" as="geometry" />
        </mxCell>
        <mxCell id="AaTU3RrL48MkJrULVNO8-42" value="table[1]" style="rounded=0;whiteSpace=wrap;html=1;" vertex="1" parent="1">
          <mxGeometry x="640" y="1076.25" width="120" height="30" as="geometry" />
        </mxCell>
        <mxCell id="AaTU3RrL48MkJrULVNO8-53" value="&quot;abc&quot;" style="rounded=0;whiteSpace=wrap;html=1;" vertex="1" parent="1">
          <mxGeometry x="1040" y="1485" width="150" height="30" as="geometry" />
        </mxCell>
        <mxCell id="AaTU3RrL48MkJrULVNO8-54" value="&quot;megan&quot;" style="rounded=0;whiteSpace=wrap;html=1;" vertex="1" parent="1">
          <mxGeometry x="1040" y="1535" width="150" height="30" as="geometry" />
        </mxCell>
        <mxCell id="AaTU3RrL48MkJrULVNO8-55" value="&quot;draco&quot;" style="rounded=0;whiteSpace=wrap;html=1;" vertex="1" parent="1">
          <mxGeometry x="1040" y="1585" width="150" height="30" as="geometry" />
        </mxCell>
        <mxCell id="AaTU3RrL48MkJrULVNO8-56" value="&quot;asdf&quot;" style="rounded=0;whiteSpace=wrap;html=1;" vertex="1" parent="1">
          <mxGeometry x="1040" y="1635" width="150" height="30" as="geometry" />
        </mxCell>
        <mxCell id="AaTU3RrL48MkJrULVNO8-57" value="&quot;no name&quot;" style="rounded=0;whiteSpace=wrap;html=1;" vertex="1" parent="1">
          <mxGeometry x="1040" y="1685" width="150" height="30" as="geometry" />
        </mxCell>
        <mxCell id="AaTU3RrL48MkJrULVNO8-58" value="&quot;hugo&quot;" style="rounded=0;whiteSpace=wrap;html=1;" vertex="1" parent="1">
          <mxGeometry x="1040" y="1735" width="150" height="30" as="geometry" />
        </mxCell>
        <mxCell id="AaTU3RrL48MkJrULVNO8-59" value="&quot;cherry&quot;" style="rounded=0;whiteSpace=wrap;html=1;" vertex="1" parent="1">
          <mxGeometry x="1040" y="1785" width="150" height="30" as="geometry" />
        </mxCell>
      </root>
    </mxGraphModel>
  </diagram>
</mxfile>
